<svg xmlns="http://www.w3.org/2000/svg" width="960" height="560" viewBox="0 0 960 560">
<rect width="100%" height="100%" fill="#ffffff"/>
<text x="480.0" y="28" text-anchor="middle" font-family="Arial" font-size="20" font-weight="700">Actor-Critic win rate vs native RLCard</text>
<line x1="74" y1="48" x2="74" y2="492" stroke="#111827"/>
<line x1="74" y1="492" x2="936" y2="492" stroke="#111827"/>
<line x1="74" y1="492.0" x2="936" y2="492.0" stroke="#e5e7eb"/>
<text x="64" y="496.0" text-anchor="end" font-family="Arial" font-size="12" fill="#374151">0.40</text>
<line x1="74" y1="391.1" x2="936" y2="391.1" stroke="#e5e7eb"/>
<text x="64" y="395.1" text-anchor="end" font-family="Arial" font-size="12" fill="#374151">0.45</text>
<line x1="74" y1="290.2" x2="936" y2="290.2" stroke="#e5e7eb"/>
<text x="64" y="294.2" text-anchor="end" font-family="Arial" font-size="12" fill="#374151">0.50</text>
<line x1="74" y1="189.3" x2="936" y2="189.3" stroke="#e5e7eb"/>
<text x="64" y="193.3" text-anchor="end" font-family="Arial" font-size="12" fill="#374151">0.55</text>
<line x1="74" y1="88.4" x2="936" y2="88.4" stroke="#e5e7eb"/>
<text x="64" y="92.4" text-anchor="end" font-family="Arial" font-size="12" fill="#374151">0.60</text>
<line x1="74.0" y1="492" x2="74.0" y2="498" stroke="#111827"/>
<text x="74.0" y="516" text-anchor="middle" font-family="Arial" font-size="12" fill="#374151">5k</text>
<line x1="361.3" y1="492" x2="361.3" y2="498" stroke="#111827"/>
<text x="361.3" y="516" text-anchor="middle" font-family="Arial" font-size="12" fill="#374151">10k</text>
<line x1="648.7" y1="492" x2="648.7" y2="498" stroke="#111827"/>
<text x="648.7" y="516" text-anchor="middle" font-family="Arial" font-size="12" fill="#374151">15k</text>
<line x1="706.1" y1="492" x2="706.1" y2="498" stroke="#111827"/>
<text x="706.1" y="516" text-anchor="middle" font-family="Arial" font-size="12" fill="#374151">16k</text>
<line x1="763.6" y1="492" x2="763.6" y2="498" stroke="#111827"/>
<text x="763.6" y="516" text-anchor="middle" font-family="Arial" font-size="12" fill="#374151">17k</text>
<line x1="821.1" y1="492" x2="821.1" y2="498" stroke="#111827"/>
<text x="821.1" y="516" text-anchor="middle" font-family="Arial" font-size="12" fill="#374151">18k</text>
<line x1="878.5" y1="492" x2="878.5" y2="498" stroke="#111827"/>
<text x="878.5" y="516" text-anchor="middle" font-family="Arial" font-size="12" fill="#374151">19k</text>
<line x1="936.0" y1="492" x2="936.0" y2="498" stroke="#111827"/>
<text x="936.0" y="516" text-anchor="middle" font-family="Arial" font-size="12" fill="#374151">20k</text>
<text x="480.0" y="542" text-anchor="middle" font-family="Arial" font-size="14" fill="#111827">training episodes</text>
<text x="18" y="280.0" transform="rotate(-90 18 280.0)" text-anchor="middle" font-family="Arial" font-size="14" fill="#111827">win rate</text>
<polyline fill="none" stroke="#2563eb" stroke-width="3" points="74.0,407.2 361.3,397.8 648.7,285.5 706.1,275.4 763.6,270.0 821.1,255.2 878.5,286.1 936.0,262.6"/>
<circle cx="74.0" cy="407.2" r="4" fill="#2563eb"><title>overall 5000: 0.4420</title></circle>
<circle cx="361.3" cy="397.8" r="4" fill="#2563eb"><title>overall 10000: 0.4467</title></circle>
<circle cx="648.7" cy="285.5" r="4" fill="#2563eb"><title>overall 15000: 0.5023</title></circle>
<circle cx="706.1" cy="275.4" r="4" fill="#2563eb"><title>overall 16000: 0.5073</title></circle>
<circle cx="763.6" cy="270.0" r="4" fill="#2563eb"><title>overall 17000: 0.5100</title></circle>
<circle cx="821.1" cy="255.2" r="4" fill="#2563eb"><title>overall 18000: 0.5173</title></circle>
<circle cx="878.5" cy="286.1" r="4" fill="#2563eb"><title>overall 19000: 0.5020</title></circle>
<circle cx="936.0" cy="262.6" r="4" fill="#2563eb"><title>overall 20000: 0.5137</title></circle>
<polyline fill="none" stroke="#dc2626" stroke-width="3" points="74.0,411.3 361.3,467.8 648.7,310.4 706.1,274.0 763.6,276.1 821.1,253.9 878.5,282.1 936.0,314.4"/>
<circle cx="74.0" cy="411.3" r="4" fill="#dc2626"><title>landlord 5000: 0.4400</title></circle>
<circle cx="361.3" cy="467.8" r="4" fill="#dc2626"><title>landlord 10000: 0.4120</title></circle>
<circle cx="648.7" cy="310.4" r="4" fill="#dc2626"><title>landlord 15000: 0.4900</title></circle>
<circle cx="706.1" cy="274.0" r="4" fill="#dc2626"><title>landlord 16000: 0.5080</title></circle>
<circle cx="763.6" cy="276.1" r="4" fill="#dc2626"><title>landlord 17000: 0.5070</title></circle>
<circle cx="821.1" cy="253.9" r="4" fill="#dc2626"><title>landlord 18000: 0.5180</title></circle>
<circle cx="878.5" cy="282.1" r="4" fill="#dc2626"><title>landlord 19000: 0.5040</title></circle>
<circle cx="936.0" cy="314.4" r="4" fill="#dc2626"><title>landlord 20000: 0.4880</title></circle>
<polyline fill="none" stroke="#16a34a" stroke-width="3" points="74.0,405.2 361.3,362.8 648.7,273.0 706.1,276.1 763.6,267.0 821.1,255.9 878.5,288.2 936.0,236.7"/>
<circle cx="74.0" cy="405.2" r="4" fill="#16a34a"><title>farmer 5000: 0.4430</title></circle>
<circle cx="361.3" cy="362.8" r="4" fill="#16a34a"><title>farmer 10000: 0.4640</title></circle>
<circle cx="648.7" cy="273.0" r="4" fill="#16a34a"><title>farmer 15000: 0.5085</title></circle>
<circle cx="706.1" cy="276.1" r="4" fill="#16a34a"><title>farmer 16000: 0.5070</title></circle>
<circle cx="763.6" cy="267.0" r="4" fill="#16a34a"><title>farmer 17000: 0.5115</title></circle>
<circle cx="821.1" cy="255.9" r="4" fill="#16a34a"><title>farmer 18000: 0.5170</title></circle>
<circle cx="878.5" cy="288.2" r="4" fill="#16a34a"><title>farmer 19000: 0.5010</title></circle>
<circle cx="936.0" cy="236.7" r="4" fill="#16a34a"><title>farmer 20000: 0.5265</title></circle>
<line x1="730" y1="58" x2="758" y2="58" stroke="#2563eb" stroke-width="3"/>
<text x="768" y="62" font-family="Arial" font-size="13" fill="#111827">overall</text>
<line x1="730" y1="82" x2="758" y2="82" stroke="#dc2626" stroke-width="3"/>
<text x="768" y="86" font-family="Arial" font-size="13" fill="#111827">landlord</text>
<line x1="730" y1="106" x2="758" y2="106" stroke="#16a34a" stroke-width="3"/>
<text x="768" y="110" font-family="Arial" font-size="13" fill="#111827">farmer</text>
<text x="74" y="36" font-family="Arial" font-size="13" fill="#111827">Best overall: 18k = 0.5173</text>
</svg>