<svg xmlns="http://www.w3.org/2000/svg" width="960" height="560" viewBox="0 0 960 560">
<rect width="100%" height="100%" fill="#ffffff"/>
<text x="480.0" y="28" text-anchor="middle" font-family="Arial" font-size="20" font-weight="700">Policy Gradient win rate vs native RLCard</text>
<line x1="74" y1="48" x2="74" y2="492" stroke="#111827"/>
<line x1="74" y1="492" x2="936" y2="492" stroke="#111827"/>
<line x1="74" y1="492.0" x2="936" y2="492.0" stroke="#e5e7eb"/>
<text x="64" y="496.0" text-anchor="end" font-family="Arial" font-size="12" fill="#374151">0.40</text>
<line x1="74" y1="365.1" x2="936" y2="365.1" stroke="#e5e7eb"/>
<text x="64" y="369.1" text-anchor="end" font-family="Arial" font-size="12" fill="#374151">0.50</text>
<line x1="74" y1="238.3" x2="936" y2="238.3" stroke="#e5e7eb"/>
<text x="64" y="242.3" text-anchor="end" font-family="Arial" font-size="12" fill="#374151">0.60</text>
<line x1="74" y1="111.4" x2="936" y2="111.4" stroke="#e5e7eb"/>
<text x="64" y="115.4" text-anchor="end" font-family="Arial" font-size="12" fill="#374151">0.70</text>
<line x1="74.0" y1="492" x2="74.0" y2="498" stroke="#111827"/>
<text x="74.0" y="516" text-anchor="middle" font-family="Arial" font-size="12" fill="#374151">5k</text>
<line x1="361.3" y1="492" x2="361.3" y2="498" stroke="#111827"/>
<text x="361.3" y="516" text-anchor="middle" font-family="Arial" font-size="12" fill="#374151">10k</text>
<line x1="648.7" y1="492" x2="648.7" y2="498" stroke="#111827"/>
<text x="648.7" y="516" text-anchor="middle" font-family="Arial" font-size="12" fill="#374151">15k</text>
<line x1="706.1" y1="492" x2="706.1" y2="498" stroke="#111827"/>
<text x="706.1" y="516" text-anchor="middle" font-family="Arial" font-size="12" fill="#374151">16k</text>
<line x1="763.6" y1="492" x2="763.6" y2="498" stroke="#111827"/>
<text x="763.6" y="516" text-anchor="middle" font-family="Arial" font-size="12" fill="#374151">17k</text>
<line x1="821.1" y1="492" x2="821.1" y2="498" stroke="#111827"/>
<text x="821.1" y="516" text-anchor="middle" font-family="Arial" font-size="12" fill="#374151">18k</text>
<line x1="878.5" y1="492" x2="878.5" y2="498" stroke="#111827"/>
<text x="878.5" y="516" text-anchor="middle" font-family="Arial" font-size="12" fill="#374151">19k</text>
<line x1="936.0" y1="492" x2="936.0" y2="498" stroke="#111827"/>
<text x="936.0" y="516" text-anchor="middle" font-family="Arial" font-size="12" fill="#374151">20k</text>
<text x="480.0" y="542" text-anchor="middle" font-family="Arial" font-size="14" fill="#111827">training episodes</text>
<text x="18" y="280.0" transform="rotate(-90 18 280.0)" text-anchor="middle" font-family="Arial" font-size="14" fill="#111827">win rate</text>
<polyline fill="none" stroke="#2563eb" stroke-width="3" points="74.0,269.2 361.3,242.5 648.7,247.6 706.1,240.8 763.6,229.0 821.1,247.2 878.5,258.6 936.0,338.1"/>
<circle cx="74.0" cy="269.2" r="4" fill="#2563eb"><title>overall 5000: 0.5757</title></circle>
<circle cx="361.3" cy="242.5" r="4" fill="#2563eb"><title>overall 10000: 0.5967</title></circle>
<circle cx="648.7" cy="247.6" r="4" fill="#2563eb"><title>overall 15000: 0.5927</title></circle>
<circle cx="706.1" cy="240.8" r="4" fill="#2563eb"><title>overall 16000: 0.5980</title></circle>
<circle cx="763.6" cy="229.0" r="4" fill="#2563eb"><title>overall 17000: 0.6073</title></circle>
<circle cx="821.1" cy="247.2" r="4" fill="#2563eb"><title>overall 18000: 0.5930</title></circle>
<circle cx="878.5" cy="258.6" r="4" fill="#2563eb"><title>overall 19000: 0.5840</title></circle>
<circle cx="936.0" cy="338.1" r="4" fill="#2563eb"><title>overall 20000: 0.5213</title></circle>
<polyline fill="none" stroke="#dc2626" stroke-width="3" points="74.0,135.5 361.3,130.5 648.7,141.9 706.1,117.8 763.6,103.8 821.1,88.6 878.5,106.4 936.0,124.1"/>
<circle cx="74.0" cy="135.5" r="4" fill="#dc2626"><title>landlord 5000: 0.6810</title></circle>
<circle cx="361.3" cy="130.5" r="4" fill="#dc2626"><title>landlord 10000: 0.6850</title></circle>
<circle cx="648.7" cy="141.9" r="4" fill="#dc2626"><title>landlord 15000: 0.6760</title></circle>
<circle cx="706.1" cy="117.8" r="4" fill="#dc2626"><title>landlord 16000: 0.6950</title></circle>
<circle cx="763.6" cy="103.8" r="4" fill="#dc2626"><title>landlord 17000: 0.7060</title></circle>
<circle cx="821.1" cy="88.6" r="4" fill="#dc2626"><title>landlord 18000: 0.7180</title></circle>
<circle cx="878.5" cy="106.4" r="4" fill="#dc2626"><title>landlord 19000: 0.7040</title></circle>
<circle cx="936.0" cy="124.1" r="4" fill="#dc2626"><title>landlord 20000: 0.6900</title></circle>
<polyline fill="none" stroke="#16a34a" stroke-width="3" points="74.0,336.0 361.3,298.5 648.7,300.4 706.1,302.3 763.6,291.6 821.1,326.5 878.5,334.7 936.0,445.1"/>
<circle cx="74.0" cy="336.0" r="4" fill="#16a34a"><title>farmer 5000: 0.5230</title></circle>
<circle cx="361.3" cy="298.5" r="4" fill="#16a34a"><title>farmer 10000: 0.5525</title></circle>
<circle cx="648.7" cy="300.4" r="4" fill="#16a34a"><title>farmer 15000: 0.5510</title></circle>
<circle cx="706.1" cy="302.3" r="4" fill="#16a34a"><title>farmer 16000: 0.5495</title></circle>
<circle cx="763.6" cy="291.6" r="4" fill="#16a34a"><title>farmer 17000: 0.5580</title></circle>
<circle cx="821.1" cy="326.5" r="4" fill="#16a34a"><title>farmer 18000: 0.5305</title></circle>
<circle cx="878.5" cy="334.7" r="4" fill="#16a34a"><title>farmer 19000: 0.5240</title></circle>
<circle cx="936.0" cy="445.1" r="4" fill="#16a34a"><title>farmer 20000: 0.4370</title></circle>
<line x1="730" y1="58" x2="758" y2="58" stroke="#2563eb" stroke-width="3"/>
<text x="768" y="62" font-family="Arial" font-size="13" fill="#111827">overall</text>
<line x1="730" y1="82" x2="758" y2="82" stroke="#dc2626" stroke-width="3"/>
<text x="768" y="86" font-family="Arial" font-size="13" fill="#111827">landlord</text>
<line x1="730" y1="106" x2="758" y2="106" stroke="#16a34a" stroke-width="3"/>
<text x="768" y="110" font-family="Arial" font-size="13" fill="#111827">farmer</text>
<text x="74" y="36" font-family="Arial" font-size="13" fill="#111827">Best overall: 17k = 0.6073</text>
</svg>